<svg xmlns="http://www.w3.org/2000/svg" viewBox="0 0 512 512" role="img" aria-label="BetterSurvival logo">
  <defs><linearGradient id="bs-bg" x1="72" y1="72" x2="440" y2="440" gradientUnits="userSpaceOnUse"><stop offset="0" stop-color="#c75b39"/><stop offset="1" stop-color="#235347"/></linearGradient></defs>
  <rect x="32" y="32" width="448" height="448" rx="112" fill="url(#bs-bg)"/>
  <ellipse cx="192" cy="128" rx="112" ry="72" fill="#ffffff" opacity=".18"/>
  <path d="M256 82 389 143 358 343 256 425 154 343 123 143Z" fill="#fff6ee"/>
  <path d="M256 123 343 164 322 318 256 374 190 318 169 164Z" fill="#235347"/>
  <path d="M256 133 174 256h51l-72 92h82v43h42v-43h82l-72-92h51Z" fill="#171717"/>
  <path d="M154 154 358 358" stroke="#c75b39" stroke-width="20" stroke-linecap="round"/>
  <path d="M123 200 205 118" stroke="#c75b39" stroke-width="20" stroke-linecap="round"/>
</svg>
